# xmcd CD database file
#
# Track frame offsets:
#	150
#	29605
#	47902
#	73272
#	99732
#	119642
#	152132
#	175285
#	197237
#
# Disc length: 3129 seconds
#
# Revision: 6
# Processed by: cddbd v1.5.2PL0 Copyright (c) Steve Scherf et al.
# Submitted via: CDex 1.51
#
DISCID=8a0c3709
DTITLE=Ira Stein and Russel Walder - Transit
DYEAR=1986
DGENRE=New Age
TTITLE0=The Underground
TTITLE1=Engravings
TTITLE2=Marseille
TTITLE3=Foreign Correspondence
TTITLE4=Transit
TTITLE5=Lost Time
TTITLE6=Circe
TTITLE7=The Calling
TTITLE8=Suite For Dominique: Over And Under - Round Robin - All Bounced Up
EXTD=YEAR: 1986
EXTT0=
EXTT1=
EXTT2=
EXTT3=
EXTT4=
EXTT5=
EXTT6=
EXTT7=
EXTT8=
PLAYORDER=
